<svg width="24" height="24" viewBox="0 0 24 24" fill="none" xmlns="http://www.w3.org/2000/svg">
<path d="M18.6357 11.4034L18.6354 11.4027C18.2768 10.5957 17.7721 9.86295 17.1476 9.24106C16.8939 9.83965 16.5073 10.4131 16.0253 10.9499L16.0189 10.9571L16.0123 10.9641C15.7607 11.2337 15.4597 11.3078 15.2757 11.3246C15.0534 11.3448 14.7113 11.3037 14.4171 11.0384C14.1428 10.7941 14.021 10.4496 14.039 10.1255L14.0394 10.1197C14.1112 8.95108 13.7649 7.54599 12.8965 5.91712L12.8957 5.9156C12.2772 4.75069 11.4502 3.83349 10.4364 3.16224C10.4352 3.889 10.3307 4.57623 10.101 5.19135L18.6357 11.4034ZM18.6357 11.4034C19.0447 12.3222 19.25 13.2945 19.25 14.299L19.25 14.3011C19.252 15.2608 19.0585 16.2109 18.6813 17.0935L18.681 17.0942C18.3171 17.9473 17.7956 18.7155 17.1285 19.3742L17.126 19.3768C16.4658 20.0335 15.684 20.5554 14.8243 20.9133L14.8237 20.9135C13.9292 21.2866 12.9819 21.4763 12 21.4763C11.0181 21.4763 10.0716 21.2866 9.17813 20.912L9.1768 20.9114M18.6357 11.4034L9.1768 20.9114M8.83534 7.38673L8.83491 7.38725C8.45788 7.84577 8.03055 8.2605 7.56096 8.62365L7.55868 8.62541L7.55868 8.62541C6.69052 9.29278 5.98448 10.1478 5.49335 11.1265C5.00506 12.112 4.75068 13.1968 4.75 14.2967L8.83534 7.38673ZM8.83534 7.38673C9.378 6.72586 9.80406 5.98765 10.1009 5.19181L8.83534 7.38673ZM9.1768 20.9114C8.31541 20.5516 7.54159 20.0336 6.87195 19.3724C6.21175 18.7194 5.6843 17.9447 5.31875 17.0911M9.1768 20.9114L5.31875 17.0911M5.31875 17.0911C4.94113 16.2064 4.75007 15.2693 4.75 14.2972L5.31875 17.0911Z" stroke="#DDDDDD" stroke-width="2"/>
</svg>
