<svg width="20" height="22" viewBox="0 0 20 22" fill="none" xmlns="http://www.w3.org/2000/svg">
<path d="M10 11C12.7614 11 15 8.76142 15 6C15 3.23858 12.7614 1 10 1C7.23858 1 5 3.23858 5 6C5 8.76142 7.23858 11 10 11Z" stroke="white" stroke-width="2"/>
<path d="M15 13H15.352C16.0831 13.0002 16.7889 13.2674 17.3369 13.7513C17.8849 14.2352 18.2373 14.9026 18.328 15.628L18.719 18.752C18.7542 19.0334 18.7291 19.3191 18.6454 19.5901C18.5617 19.8611 18.4214 20.1112 18.2336 20.3238C18.0459 20.5364 17.8151 20.7066 17.5566 20.8232C17.298 20.9398 17.0176 21.0001 16.734 21H3.266C2.98238 21.0001 2.70199 20.9398 2.44345 20.8232C2.1849 20.7066 1.9541 20.5364 1.76638 20.3238C1.57865 20.1112 1.43829 19.8611 1.3546 19.5901C1.27092 19.3191 1.24583 19.0334 1.281 18.752L1.671 15.628C1.7617 14.9022 2.11442 14.2346 2.66283 13.7506C3.21125 13.2667 3.91758 12.9997 4.649 13H5" stroke="white" stroke-width="2" stroke-linecap="round" stroke-linejoin="round"/>
</svg>
