<svg width="16" height="22" viewBox="0 0 16 22" fill="none" xmlns="http://www.w3.org/2000/svg">
<path d="M3.38995 1.41805L4.55695 1.06705C5.19624 0.874278 5.88384 0.920685 6.49142 1.19761C7.09901 1.47454 7.58509 1.96308 7.85895 2.57205L8.76095 4.57805C8.99642 5.10186 9.06199 5.68623 8.94846 6.24919C8.83494 6.81215 8.54802 7.32544 8.12795 7.71705L6.63395 9.11005C6.59028 9.15075 6.56261 9.20573 6.55595 9.26505C6.51195 9.66206 6.78095 10.4351 7.40095 11.5101C7.85195 12.2911 8.26095 12.8401 8.60795 13.1471C8.84995 13.3621 8.98295 13.4081 9.03995 13.3921L11.05 12.7771C11.5989 12.6092 12.1866 12.6172 12.7306 12.8001C13.2747 12.9831 13.7479 13.3317 14.084 13.7971L15.365 15.5731C15.7545 16.1131 15.9348 16.7762 15.8725 17.4392C15.8102 18.1022 15.5094 18.7201 15.026 19.1781L14.14 20.0181C13.6697 20.4634 13.0922 20.7793 12.4636 20.9351C11.835 21.0909 11.1767 21.0812 10.553 20.9071C7.79895 20.1381 5.32995 17.8141 3.11795 13.9831C0.902953 10.1471 0.125953 6.84305 0.841953 4.07005C1.00313 3.44639 1.32224 2.87476 1.76853 2.41025C2.21481 1.94575 2.77323 1.60404 3.38995 1.41805ZM3.82295 2.85505C3.45303 2.96651 3.11803 3.17134 2.85023 3.44982C2.58244 3.7283 2.39086 4.07105 2.29395 4.44505C1.69195 6.77705 2.38095 9.70605 4.41695 13.2331C6.44995 16.7551 8.63895 18.8151 10.957 19.4631C11.3311 19.5673 11.7258 19.5728 12.1028 19.4793C12.4797 19.3857 12.826 19.1961 13.108 18.9291L13.995 18.0891C14.2148 17.8808 14.3515 17.5999 14.3799 17.2985C14.4082 16.997 14.3261 16.6956 14.149 16.4501L12.869 14.6751C12.7162 14.4633 12.501 14.3046 12.2535 14.2214C12.006 14.1382 11.7386 14.1346 11.489 14.2111L9.47395 14.8281C8.30395 15.1761 7.24195 14.2351 6.10195 12.2601C5.33395 10.9301 4.97595 9.90005 5.06495 9.09905C5.11195 8.68305 5.30495 8.29905 5.61095 8.01305L7.10495 6.62005C7.29598 6.44207 7.42647 6.20874 7.47812 5.95281C7.52978 5.69688 7.49999 5.43119 7.39295 5.19305L6.49095 3.18705C6.36647 2.91046 6.14567 2.68857 5.8697 2.56272C5.59372 2.43688 5.28141 2.41567 4.99095 2.50305L3.82295 2.85505Z" fill="#DDDDDD"/>
</svg>
