<svg width="20" height="17" viewBox="0 0 20 17" fill="none" xmlns="http://www.w3.org/2000/svg">
<path d="M4 4C4 3.46957 4.21071 2.96086 4.58579 2.58579C4.96086 2.21071 5.46957 2 6 2C6.53043 2 7.03914 2.21071 7.41421 2.58579C7.78929 2.96086 8 3.46957 8 4C8 4.53043 7.78929 5.03914 7.41421 5.41421C7.03914 5.78929 6.53043 6 6 6C5.46957 6 4.96086 5.78929 4.58579 5.41421C4.21071 5.03914 4 4.53043 4 4ZM6 0C4.93913 0 3.92172 0.421427 3.17157 1.17157C2.42143 1.92172 2 2.93913 2 4C2 5.06087 2.42143 6.07828 3.17157 6.82843C3.92172 7.57857 4.93913 8 6 8C7.06087 8 8.07828 7.57857 8.82843 6.82843C9.57857 6.07828 10 5.06087 10 4C10 2.93913 9.57857 1.92172 8.82843 1.17157C8.07828 0.421427 7.06087 0 6 0ZM14 5C14 4.73478 14.1054 4.48043 14.2929 4.29289C14.4804 4.10536 14.7348 4 15 4C15.2652 4 15.5196 4.10536 15.7071 4.29289C15.8946 4.48043 16 4.73478 16 5C16 5.26522 15.8946 5.51957 15.7071 5.70711C15.5196 5.89464 15.2652 6 15 6C14.7348 6 14.4804 5.89464 14.2929 5.70711C14.1054 5.51957 14 5.26522 14 5ZM15 2C14.2044 2 13.4413 2.31607 12.8787 2.87868C12.3161 3.44129 12 4.20435 12 5C12 5.79565 12.3161 6.55871 12.8787 7.12132C13.4413 7.68393 14.2044 8 15 8C15.7956 8 16.5587 7.68393 17.1213 7.12132C17.6839 6.55871 18 5.79565 18 5C18 4.20435 17.6839 3.44129 17.1213 2.87868C16.5587 2.31607 15.7956 2 15 2ZM0 12.5C0 11.12 1.12 10 2.5 10H9.5C10.88 10 12 11.12 12 12.5V12.596C11.9985 12.6689 11.9931 12.7417 11.984 12.814C11.9664 12.9893 11.9363 13.163 11.894 13.334C11.7599 13.8875 11.5187 14.4093 11.184 14.87C10.336 16.036 8.756 17 6 17C3.244 17 1.664 16.036 0.816 14.87C0.377486 14.2646 0.102001 13.5566 0.016 12.814C0.00796259 12.7409 0.00262559 12.6675 0 12.594V12.5ZM2 12.552C2.00829 12.6572 2.02501 12.7615 2.05 12.864C2.104 13.09 2.214 13.392 2.434 13.694C2.834 14.246 3.754 15 6 15C8.244 15 9.164 14.246 9.566 13.694C9.80807 13.3586 9.95774 12.9655 10 12.554V12.5C10 12.3674 9.94732 12.2402 9.85355 12.1464C9.75979 12.0527 9.63261 12 9.5 12H2.5C2.36739 12 2.24021 12.0527 2.14645 12.1464C2.05268 12.2402 2 12.3674 2 12.5V12.552ZM14.998 16C14.3703 16.0062 13.7441 15.9391 13.132 15.8C13.4977 15.2227 13.7571 14.5847 13.898 13.916C14.208 13.968 14.572 14 14.998 14C16.778 14 17.454 13.456 17.718 13.126C17.8648 12.9433 17.9613 12.7254 17.998 12.494V12.484C17.9938 12.3542 17.9393 12.2311 17.846 12.1407C17.7527 12.0504 17.6279 11.9999 17.498 12H13.972C13.8931 11.2843 13.6427 10.5982 13.242 10H17.5C18.88 10 20 11.12 20 12.5V12.534C19.9983 12.5962 19.9936 12.6583 19.986 12.72C19.9066 13.3252 19.6631 13.8972 19.282 14.374C18.544 15.294 17.222 16 15 16H14.998Z" fill="#DDDDDD"/>
</svg>
